# MagicaVoxel @ Ephtracy

# group
o 

# material
mtllib souse.mtl
usemtl palette

# normals
vn -1 0 0
vn 1 0 0
vn 0 0 1
vn 0 0 -1
vn 0 -1 0
vn 0 1 0

# texcoords
vt 0.607422 0.5

# verts
v -3 0 0.6
v -3 0 -0.6
v -3 0.4 0.6
v -3 0.4 -0.6
v 2.38419e-007 0 3
v 2.38419e-007 0 0.6
v 2.38419e-007 0 -0.6
v 2.38419e-007 0 -3
v 2.38419e-007 0.4 3
v 2.38419e-007 0.4 0.6
v 2.38419e-007 0.4 -0.6
v 2.38419e-007 0.4 -3
v 0.1 0 3
v 0.1 0 2.9
v 0.1 0 -2.9
v 0.1 0 -3
v 0.1 0.4 3
v 0.1 0.4 2.9
v 0.1 0.4 -2.9
v 0.1 0.4 -3
v 0.2 0 2.9
v 0.2 0 2.8
v 0.2 0 -2.8
v 0.2 0 -2.9
v 0.2 0.4 2.9
v 0.2 0.4 2.8
v 0.2 0.4 -2.8
v 0.2 0.4 -2.9
v 0.3 0 2.8
v 0.3 0 2.7
v 0.3 0 -2.7
v 0.3 0 -2.8
v 0.3 0.4 2.8
v 0.3 0.4 2.7
v 0.3 0.4 -2.7
v 0.3 0.4 -2.8
v 0.4 0 2.7
v 0.4 0 2.6
v 0.4 0 -2.6
v 0.4 0 -2.7
v 0.4 0.4 2.7
v 0.4 0.4 2.6
v 0.4 0.4 -2.6
v 0.4 0.4 -2.7
v 0.5 0 2.6
v 0.5 0 2.5
v 0.5 0 -2.5
v 0.5 0 -2.6
v 0.5 0.4 2.6
v 0.5 0.4 2.5
v 0.5 0.4 -2.5
v 0.5 0.4 -2.6
v 0.6 0 2.5
v 0.6 0 2.4
v 0.6 0 -2.4
v 0.6 0 -2.5
v 0.6 0.4 2.5
v 0.6 0.4 2.4
v 0.6 0.4 -2.4
v 0.6 0.4 -2.5
v 0.7 0 2.4
v 0.7 0 2.3
v 0.7 0 -2.3
v 0.7 0 -2.4
v 0.7 0.4 2.4
v 0.7 0.4 2.3
v 0.7 0.4 -2.3
v 0.7 0.4 -2.4
v 0.8 0 2.3
v 0.8 0 2.2
v 0.8 0 -2.2
v 0.8 0 -2.3
v 0.8 0.4 2.3
v 0.8 0.4 2.2
v 0.8 0.4 -2.2
v 0.8 0.4 -2.3
v 0.9 0 2.2
v 0.9 0 2.1
v 0.9 0 -2.1
v 0.9 0 -2.2
v 0.9 0.4 2.2
v 0.9 0.4 2.1
v 0.9 0.4 -2.1
v 0.9 0.4 -2.2
v 1 0 2.1
v 1 0 2
v 1 0 -2
v 1 0 -2.1
v 1 0.4 2.1
v 1 0.4 2
v 1 0.4 -2
v 1 0.4 -2.1
v 1.1 0 2
v 1.1 0 1.9
v 1.1 0 -1.9
v 1.1 0 -2
v 1.1 0.4 2
v 1.1 0.4 1.9
v 1.1 0.4 -1.9
v 1.1 0.4 -2
v 1.2 0 1.9
v 1.2 0 1.8
v 1.2 0 -1.8
v 1.2 0 -1.9
v 1.2 0.4 1.9
v 1.2 0.4 1.8
v 1.2 0.4 -1.8
v 1.2 0.4 -1.9
v 1.3 0 1.8
v 1.3 0 1.7
v 1.3 0 -1.7
v 1.3 0 -1.8
v 1.3 0.4 1.8
v 1.3 0.4 1.7
v 1.3 0.4 -1.7
v 1.3 0.4 -1.8
v 1.4 0 1.7
v 1.4 0 1.6
v 1.4 0 -1.6
v 1.4 0 -1.7
v 1.4 0.4 1.7
v 1.4 0.4 1.6
v 1.4 0.4 -1.6
v 1.4 0.4 -1.7
v 1.5 0 1.6
v 1.5 0 1.5
v 1.5 0 -1.5
v 1.5 0 -1.6
v 1.5 0.4 1.6
v 1.5 0.4 1.5
v 1.5 0.4 -1.5
v 1.5 0.4 -1.6
v 1.6 0 1.5
v 1.6 0 1.4
v 1.6 0 -1.4
v 1.6 0 -1.5
v 1.6 0.4 1.5
v 1.6 0.4 1.4
v 1.6 0.4 -1.4
v 1.6 0.4 -1.5
v 1.7 0 1.4
v 1.7 0 1.3
v 1.7 0 -1.3
v 1.7 0 -1.4
v 1.7 0.4 1.4
v 1.7 0.4 1.3
v 1.7 0.4 -1.3
v 1.7 0.4 -1.4
v 1.8 0 1.3
v 1.8 0 1.2
v 1.8 0 -1.2
v 1.8 0 -1.3
v 1.8 0.4 1.3
v 1.8 0.4 1.2
v 1.8 0.4 -1.2
v 1.8 0.4 -1.3
v 1.9 0 1.2
v 1.9 0 1.1
v 1.9 0 -1.1
v 1.9 0 -1.2
v 1.9 0.4 1.2
v 1.9 0.4 1.1
v 1.9 0.4 -1.1
v 1.9 0.4 -1.2
v 2 0 1.1
v 2 0 1
v 2 0 -1
v 2 0 -1.1
v 2 0.4 1.1
v 2 0.4 1
v 2 0.4 -1
v 2 0.4 -1.1
v 2.1 0 1
v 2.1 0 0.9
v 2.1 0 -0.9
v 2.1 0 -1
v 2.1 0.4 1
v 2.1 0.4 0.9
v 2.1 0.4 -0.9
v 2.1 0.4 -1
v 2.2 0 0.9
v 2.2 0 0.8
v 2.2 0 -0.8
v 2.2 0 -0.9
v 2.2 0.4 0.9
v 2.2 0.4 0.8
v 2.2 0.4 -0.8
v 2.2 0.4 -0.9
v 2.3 0 0.8
v 2.3 0 0.7
v 2.3 0 -0.7
v 2.3 0 -0.8
v 2.3 0.4 0.8
v 2.3 0.4 0.7
v 2.3 0.4 -0.7
v 2.3 0.4 -0.8
v 2.4 0 0.7
v 2.4 0 0.6
v 2.4 0 -0.6
v 2.4 0 -0.7
v 2.4 0.4 0.7
v 2.4 0.4 0.6
v 2.4 0.4 -0.6
v 2.4 0.4 -0.7
v 2.5 0 0.6
v 2.5 0 0.5
v 2.5 0 -0.5
v 2.5 0 -0.6
v 2.5 0.4 0.6
v 2.5 0.4 0.5
v 2.5 0.4 -0.5
v 2.5 0.4 -0.6
v 2.6 0 0.5
v 2.6 0 0.4
v 2.6 0 -0.4
v 2.6 0 -0.5
v 2.6 0.4 0.5
v 2.6 0.4 0.4
v 2.6 0.4 -0.4
v 2.6 0.4 -0.5
v 2.7 0 0.4
v 2.7 0 0.3
v 2.7 0 -0.3
v 2.7 0 -0.4
v 2.7 0.4 0.4
v 2.7 0.4 0.3
v 2.7 0.4 -0.3
v 2.7 0.4 -0.4
v 2.8 0 0.3
v 2.8 0 0.2
v 2.8 0 -0.2
v 2.8 0 -0.3
v 2.8 0.4 0.3
v 2.8 0.4 0.2
v 2.8 0.4 -0.2
v 2.8 0.4 -0.3
v 2.9 0 0.2
v 2.9 0 0.0999999
v 2.9 0 -0.1
v 2.9 0 -0.2
v 2.9 0.4 0.2
v 2.9 0.4 0.0999999
v 2.9 0.4 -0.1
v 2.9 0.4 -0.2
v 3 0 0.0999999
v 3 0 -0.1
v 3 0.4 0.0999999
v 3 0.4 -0.1
v 2.38419e-007 0 3
v 2.38419e-007 0.4 3
v 0.1 0 3
v 0.1 0.4 3
v 0.1 0 2.9
v 0.1 0.4 2.9
v 0.2 0 2.9
v 0.2 0.4 2.9
v 0.2 0 2.8
v 0.2 0.4 2.8
v 0.3 0 2.8
v 0.3 0.4 2.8
v 0.3 0 2.7
v 0.3 0.4 2.7
v 0.4 0 2.7
v 0.4 0.4 2.7
v 0.4 0 2.6
v 0.4 0.4 2.6
v 0.5 0 2.6
v 0.5 0.4 2.6
v 0.5 0 2.5
v 0.5 0.4 2.5
v 0.6 0 2.5
v 0.6 0.4 2.5
v 0.6 0 2.4
v 0.6 0.4 2.4
v 0.7 0 2.4
v 0.7 0.4 2.4
v 0.7 0 2.3
v 0.7 0.4 2.3
v 0.8 0 2.3
v 0.8 0.4 2.3
v 0.8 0 2.2
v 0.8 0.4 2.2
v 0.9 0 2.2
v 0.9 0.4 2.2
v 0.9 0 2.1
v 0.9 0.4 2.1
v 1 0 2.1
v 1 0.4 2.1
v 1 0 2
v 1 0.4 2
v 1.1 0 2
v 1.1 0.4 2
v 1.1 0 1.9
v 1.1 0.4 1.9
v 1.2 0 1.9
v 1.2 0.4 1.9
v 1.2 0 1.8
v 1.2 0.4 1.8
v 1.3 0 1.8
v 1.3 0.4 1.8
v 1.3 0 1.7
v 1.3 0.4 1.7
v 1.4 0 1.7
v 1.4 0.4 1.7
v 1.4 0 1.6
v 1.4 0.4 1.6
v 1.5 0 1.6
v 1.5 0.4 1.6
v 1.5 0 1.5
v 1.5 0.4 1.5
v 1.6 0 1.5
v 1.6 0.4 1.5
v 1.6 0 1.4
v 1.6 0.4 1.4
v 1.7 0 1.4
v 1.7 0.4 1.4
v 1.7 0 1.3
v 1.7 0.4 1.3
v 1.8 0 1.3
v 1.8 0.4 1.3
v 1.8 0 1.2
v 1.8 0.4 1.2
v 1.9 0 1.2
v 1.9 0.4 1.2
v 1.9 0 1.1
v 1.9 0.4 1.1
v 2 0 1.1
v 2 0.4 1.1
v 2 0 1
v 2 0.4 1
v 2.1 0 1
v 2.1 0.4 1
v 2.1 0 0.9
v 2.1 0.4 0.9
v 2.2 0 0.9
v 2.2 0.4 0.9
v 2.2 0 0.8
v 2.2 0.4 0.8
v 2.3 0 0.8
v 2.3 0.4 0.8
v 2.3 0 0.7
v 2.3 0.4 0.7
v 2.4 0 0.7
v 2.4 0.4 0.7
v -3 0 0.6
v -3 0.4 0.6
v 2.38419e-007 0 0.6
v 2.38419e-007 0.4 0.6
v 2.4 0 0.6
v 2.4 0.4 0.6
v 2.5 0 0.6
v 2.5 0.4 0.6
v 2.5 0 0.5
v 2.5 0.4 0.5
v 2.6 0 0.5
v 2.6 0.4 0.5
v 2.6 0 0.4
v 2.6 0.4 0.4
v 2.7 0 0.4
v 2.7 0.4 0.4
v 2.7 0 0.3
v 2.7 0.4 0.3
v 2.8 0 0.3
v 2.8 0.4 0.3
v 2.8 0 0.2
v 2.8 0.4 0.2
v 2.9 0 0.2
v 2.9 0.4 0.2
v 2.9 0 0.0999999
v 2.9 0.4 0.0999999
v 3 0 0.0999999
v 3 0.4 0.0999999
v 2.9 0 -0.1
v 2.9 0.4 -0.1
v 3 0 -0.1
v 3 0.4 -0.1
v 2.8 0 -0.2
v 2.8 0.4 -0.2
v 2.9 0 -0.2
v 2.9 0.4 -0.2
v 2.7 0 -0.3
v 2.7 0.4 -0.3
v 2.8 0 -0.3
v 2.8 0.4 -0.3
v 2.6 0 -0.4
v 2.6 0.4 -0.4
v 2.7 0 -0.4
v 2.7 0.4 -0.4
v 2.5 0 -0.5
v 2.5 0.4 -0.5
v 2.6 0 -0.5
v 2.6 0.4 -0.5
v -3 0 -0.6
v -3 0.4 -0.6
v 2.38419e-007 0 -0.6
v 2.38419e-007 0.4 -0.6
v 2.4 0 -0.6
v 2.4 0.4 -0.6
v 2.5 0 -0.6
v 2.5 0.4 -0.6
v 2.3 0 -0.7
v 2.3 0.4 -0.7
v 2.4 0 -0.7
v 2.4 0.4 -0.7
v 2.2 0 -0.8
v 2.2 0.4 -0.8
v 2.3 0 -0.8
v 2.3 0.4 -0.8
v 2.1 0 -0.9
v 2.1 0.4 -0.9
v 2.2 0 -0.9
v 2.2 0.4 -0.9
v 2 0 -1
v 2 0.4 -1
v 2.1 0 -1
v 2.1 0.4 -1
v 1.9 0 -1.1
v 1.9 0.4 -1.1
v 2 0 -1.1
v 2 0.4 -1.1
v 1.8 0 -1.2
v 1.8 0.4 -1.2
v 1.9 0 -1.2
v 1.9 0.4 -1.2
v 1.7 0 -1.3
v 1.7 0.4 -1.3
v 1.8 0 -1.3
v 1.8 0.4 -1.3
v 1.6 0 -1.4
v 1.6 0.4 -1.4
v 1.7 0 -1.4
v 1.7 0.4 -1.4
v 1.5 0 -1.5
v 1.5 0.4 -1.5
v 1.6 0 -1.5
v 1.6 0.4 -1.5
v 1.4 0 -1.6
v 1.4 0.4 -1.6
v 1.5 0 -1.6
v 1.5 0.4 -1.6
v 1.3 0 -1.7
v 1.3 0.4 -1.7
v 1.4 0 -1.7
v 1.4 0.4 -1.7
v 1.2 0 -1.8
v 1.2 0.4 -1.8
v 1.3 0 -1.8
v 1.3 0.4 -1.8
v 1.1 0 -1.9
v 1.1 0.4 -1.9
v 1.2 0 -1.9
v 1.2 0.4 -1.9
v 1 0 -2
v 1 0.4 -2
v 1.1 0 -2
v 1.1 0.4 -2
v 0.9 0 -2.1
v 0.9 0.4 -2.1
v 1 0 -2.1
v 1 0.4 -2.1
v 0.8 0 -2.2
v 0.8 0.4 -2.2
v 0.9 0 -2.2
v 0.9 0.4 -2.2
v 0.7 0 -2.3
v 0.7 0.4 -2.3
v 0.8 0 -2.3
v 0.8 0.4 -2.3
v 0.6 0 -2.4
v 0.6 0.4 -2.4
v 0.7 0 -2.4
v 0.7 0.4 -2.4
v 0.5 0 -2.5
v 0.5 0.4 -2.5
v 0.6 0 -2.5
v 0.6 0.4 -2.5
v 0.4 0 -2.6
v 0.4 0.4 -2.6
v 0.5 0 -2.6
v 0.5 0.4 -2.6
v 0.3 0 -2.7
v 0.3 0.4 -2.7
v 0.4 0 -2.7
v 0.4 0.4 -2.7
v 0.2 0 -2.8
v 0.2 0.4 -2.8
v 0.3 0 -2.8
v 0.3 0.4 -2.8
v 0.1 0 -2.9
v 0.1 0.4 -2.9
v 0.2 0 -2.9
v 0.2 0.4 -2.9
v 2.38419e-007 0 -3
v 2.38419e-007 0.4 -3
v 0.1 0 -3
v 0.1 0.4 -3
v 2.38419e-007 0 3
v 0.1 0 3
v 0.1 0 2.9
v 0.2 0 2.9
v 0.2 0 2.8
v 0.3 0 2.8
v 0.3 0 2.7
v 0.4 0 2.7
v 0.4 0 2.6
v 0.5 0 2.6
v 0.5 0 2.5
v 0.6 0 2.5
v 0.6 0 2.4
v 0.7 0 2.4
v 0.7 0 2.3
v 0.8 0 2.3
v 0.8 0 2.2
v 0.9 0 2.2
v 0.9 0 2.1
v 1 0 2.1
v 1 0 2
v 1.1 0 2
v 1.1 0 1.9
v 1.2 0 1.9
v 1.2 0 1.8
v 1.3 0 1.8
v 1.3 0 1.7
v 1.4 0 1.7
v 1.4 0 1.6
v 1.5 0 1.6
v 1.5 0 1.5
v 1.6 0 1.5
v 1.6 0 1.4
v 1.7 0 1.4
v 1.7 0 1.3
v 1.8 0 1.3
v 1.8 0 1.2
v 1.9 0 1.2
v 1.9 0 1.1
v 2 0 1.1
v 2 0 1
v 2.1 0 1
v 2.1 0 0.9
v 2.2 0 0.9
v 2.2 0 0.8
v 2.3 0 0.8
v 2.3 0 0.7
v 2.4 0 0.7
v -3 0 0.6
v 2.38419e-007 0 0.6
v 2.4 0 0.6
v 2.5 0 0.6
v 2.5 0 0.5
v 2.6 0 0.5
v 2.6 0 0.4
v 2.7 0 0.4
v 2.7 0 0.3
v 2.8 0 0.3
v 2.8 0 0.2
v 2.9 0 0.2
v 2.9 0 0.0999999
v 3 0 0.0999999
v 2.9 0 -0.1
v 3 0 -0.1
v 2.8 0 -0.2
v 2.9 0 -0.2
v 2.7 0 -0.3
v 2.8 0 -0.3
v 2.6 0 -0.4
v 2.7 0 -0.4
v 2.5 0 -0.5
v 2.6 0 -0.5
v -3 0 -0.6
v 2.38419e-007 0 -0.6
v 2.4 0 -0.6
v 2.5 0 -0.6
v 2.3 0 -0.7
v 2.4 0 -0.7
v 2.2 0 -0.8
v 2.3 0 -0.8
v 2.1 0 -0.9
v 2.2 0 -0.9
v 2 0 -1
v 2.1 0 -1
v 1.9 0 -1.1
v 2 0 -1.1
v 1.8 0 -1.2
v 1.9 0 -1.2
v 1.7 0 -1.3
v 1.8 0 -1.3
v 1.6 0 -1.4
v 1.7 0 -1.4
v 1.5 0 -1.5
v 1.6 0 -1.5
v 1.4 0 -1.6
v 1.5 0 -1.6
v 1.3 0 -1.7
v 1.4 0 -1.7
v 1.2 0 -1.8
v 1.3 0 -1.8
v 1.1 0 -1.9
v 1.2 0 -1.9
v 1 0 -2
v 1.1 0 -2
v 0.9 0 -2.1
v 1 0 -2.1
v 0.8 0 -2.2
v 0.9 0 -2.2
v 0.7 0 -2.3
v 0.8 0 -2.3
v 0.6 0 -2.4
v 0.7 0 -2.4
v 0.5 0 -2.5
v 0.6 0 -2.5
v 0.4 0 -2.6
v 0.5 0 -2.6
v 0.3 0 -2.7
v 0.4 0 -2.7
v 0.2 0 -2.8
v 0.3 0 -2.8
v 0.1 0 -2.9
v 0.2 0 -2.9
v 2.38419e-007 0 -3
v 0.1 0 -3
v 2.38419e-007 0.4 3
v 0.1 0.4 3
v 0.1 0.4 2.9
v 0.2 0.4 2.9
v 0.2 0.4 2.8
v 0.3 0.4 2.8
v 0.3 0.4 2.7
v 0.4 0.4 2.7
v 0.4 0.4 2.6
v 0.5 0.4 2.6
v 0.5 0.4 2.5
v 0.6 0.4 2.5
v 0.6 0.4 2.4
v 0.7 0.4 2.4
v 0.7 0.4 2.3
v 0.8 0.4 2.3
v 0.8 0.4 2.2
v 0.9 0.4 2.2
v 0.9 0.4 2.1
v 1 0.4 2.1
v 1 0.4 2
v 1.1 0.4 2
v 1.1 0.4 1.9
v 1.2 0.4 1.9
v 1.2 0.4 1.8
v 1.3 0.4 1.8
v 1.3 0.4 1.7
v 1.4 0.4 1.7
v 1.4 0.4 1.6
v 1.5 0.4 1.6
v 1.5 0.4 1.5
v 1.6 0.4 1.5
v 1.6 0.4 1.4
v 1.7 0.4 1.4
v 1.7 0.4 1.3
v 1.8 0.4 1.3
v 1.8 0.4 1.2
v 1.9 0.4 1.2
v 1.9 0.4 1.1
v 2 0.4 1.1
v 2 0.4 1
v 2.1 0.4 1
v 2.1 0.4 0.9
v 2.2 0.4 0.9
v 2.2 0.4 0.8
v 2.3 0.4 0.8
v 2.3 0.4 0.7
v 2.4 0.4 0.7
v -3 0.4 0.6
v 2.38419e-007 0.4 0.6
v 2.4 0.4 0.6
v 2.5 0.4 0.6
v 2.5 0.4 0.5
v 2.6 0.4 0.5
v 2.6 0.4 0.4
v 2.7 0.4 0.4
v 2.7 0.4 0.3
v 2.8 0.4 0.3
v 2.8 0.4 0.2
v 2.9 0.4 0.2
v 2.9 0.4 0.0999999
v 3 0.4 0.0999999
v 2.9 0.4 -0.1
v 3 0.4 -0.1
v 2.8 0.4 -0.2
v 2.9 0.4 -0.2
v 2.7 0.4 -0.3
v 2.8 0.4 -0.3
v 2.6 0.4 -0.4
v 2.7 0.4 -0.4
v 2.5 0.4 -0.5
v 2.6 0.4 -0.5
v -3 0.4 -0.6
v 2.38419e-007 0.4 -0.6
v 2.4 0.4 -0.6
v 2.5 0.4 -0.6
v 2.3 0.4 -0.7
v 2.4 0.4 -0.7
v 2.2 0.4 -0.8
v 2.3 0.4 -0.8
v 2.1 0.4 -0.9
v 2.2 0.4 -0.9
v 2 0.4 -1
v 2.1 0.4 -1
v 1.9 0.4 -1.1
v 2 0.4 -1.1
v 1.8 0.4 -1.2
v 1.9 0.4 -1.2
v 1.7 0.4 -1.3
v 1.8 0.4 -1.3
v 1.6 0.4 -1.4
v 1.7 0.4 -1.4
v 1.5 0.4 -1.5
v 1.6 0.4 -1.5
v 1.4 0.4 -1.6
v 1.5 0.4 -1.6
v 1.3 0.4 -1.7
v 1.4 0.4 -1.7
v 1.2 0.4 -1.8
v 1.3 0.4 -1.8
v 1.1 0.4 -1.9
v 1.2 0.4 -1.9
v 1 0.4 -2
v 1.1 0.4 -2
v 0.9 0.4 -2.1
v 1 0.4 -2.1
v 0.8 0.4 -2.2
v 0.9 0.4 -2.2
v 0.7 0.4 -2.3
v 0.8 0.4 -2.3
v 0.6 0.4 -2.4
v 0.7 0.4 -2.4
v 0.5 0.4 -2.5
v 0.6 0.4 -2.5
v 0.4 0.4 -2.6
v 0.5 0.4 -2.6
v 0.3 0.4 -2.7
v 0.4 0.4 -2.7
v 0.2 0.4 -2.8
v 0.3 0.4 -2.8
v 0.1 0.4 -2.9
v 0.2 0.4 -2.9
v 2.38419e-007 0.4 -3
v 0.1 0.4 -3

# faces
f 3/1/1 2/1/1 1/1/1
f 4/1/1 2/1/1 3/1/1
f 9/1/1 6/1/1 5/1/1
f 10/1/1 6/1/1 9/1/1
f 11/1/1 8/1/1 7/1/1
f 12/1/1 8/1/1 11/1/1
f 13/1/2 14/1/2 17/1/2
f 17/1/2 14/1/2 18/1/2
f 15/1/2 16/1/2 19/1/2
f 19/1/2 16/1/2 20/1/2
f 21/1/2 22/1/2 25/1/2
f 25/1/2 22/1/2 26/1/2
f 23/1/2 24/1/2 27/1/2
f 27/1/2 24/1/2 28/1/2
f 29/1/2 30/1/2 33/1/2
f 33/1/2 30/1/2 34/1/2
f 31/1/2 32/1/2 35/1/2
f 35/1/2 32/1/2 36/1/2
f 37/1/2 38/1/2 41/1/2
f 41/1/2 38/1/2 42/1/2
f 39/1/2 40/1/2 43/1/2
f 43/1/2 40/1/2 44/1/2
f 45/1/2 46/1/2 49/1/2
f 49/1/2 46/1/2 50/1/2
f 47/1/2 48/1/2 51/1/2
f 51/1/2 48/1/2 52/1/2
f 53/1/2 54/1/2 57/1/2
f 57/1/2 54/1/2 58/1/2
f 55/1/2 56/1/2 59/1/2
f 59/1/2 56/1/2 60/1/2
f 61/1/2 62/1/2 65/1/2
f 65/1/2 62/1/2 66/1/2
f 63/1/2 64/1/2 67/1/2
f 67/1/2 64/1/2 68/1/2
f 69/1/2 70/1/2 73/1/2
f 73/1/2 70/1/2 74/1/2
f 71/1/2 72/1/2 75/1/2
f 75/1/2 72/1/2 76/1/2
f 77/1/2 78/1/2 81/1/2
f 81/1/2 78/1/2 82/1/2
f 79/1/2 80/1/2 83/1/2
f 83/1/2 80/1/2 84/1/2
f 85/1/2 86/1/2 89/1/2
f 89/1/2 86/1/2 90/1/2
f 87/1/2 88/1/2 91/1/2
f 91/1/2 88/1/2 92/1/2
f 93/1/2 94/1/2 97/1/2
f 97/1/2 94/1/2 98/1/2
f 95/1/2 96/1/2 99/1/2
f 99/1/2 96/1/2 100/1/2
f 101/1/2 102/1/2 105/1/2
f 105/1/2 102/1/2 106/1/2
f 103/1/2 104/1/2 107/1/2
f 107/1/2 104/1/2 108/1/2
f 109/1/2 110/1/2 113/1/2
f 113/1/2 110/1/2 114/1/2
f 111/1/2 112/1/2 115/1/2
f 115/1/2 112/1/2 116/1/2
f 117/1/2 118/1/2 121/1/2
f 121/1/2 118/1/2 122/1/2
f 119/1/2 120/1/2 123/1/2
f 123/1/2 120/1/2 124/1/2
f 125/1/2 126/1/2 129/1/2
f 129/1/2 126/1/2 130/1/2
f 127/1/2 128/1/2 131/1/2
f 131/1/2 128/1/2 132/1/2
f 133/1/2 134/1/2 137/1/2
f 137/1/2 134/1/2 138/1/2
f 135/1/2 136/1/2 139/1/2
f 139/1/2 136/1/2 140/1/2
f 141/1/2 142/1/2 145/1/2
f 145/1/2 142/1/2 146/1/2
f 143/1/2 144/1/2 147/1/2
f 147/1/2 144/1/2 148/1/2
f 149/1/2 150/1/2 153/1/2
f 153/1/2 150/1/2 154/1/2
f 151/1/2 152/1/2 155/1/2
f 155/1/2 152/1/2 156/1/2
f 157/1/2 158/1/2 161/1/2
f 161/1/2 158/1/2 162/1/2
f 159/1/2 160/1/2 163/1/2
f 163/1/2 160/1/2 164/1/2
f 165/1/2 166/1/2 169/1/2
f 169/1/2 166/1/2 170/1/2
f 167/1/2 168/1/2 171/1/2
f 171/1/2 168/1/2 172/1/2
f 173/1/2 174/1/2 177/1/2
f 177/1/2 174/1/2 178/1/2
f 175/1/2 176/1/2 179/1/2
f 179/1/2 176/1/2 180/1/2
f 181/1/2 182/1/2 185/1/2
f 185/1/2 182/1/2 186/1/2
f 183/1/2 184/1/2 187/1/2
f 187/1/2 184/1/2 188/1/2
f 189/1/2 190/1/2 193/1/2
f 193/1/2 190/1/2 194/1/2
f 191/1/2 192/1/2 195/1/2
f 195/1/2 192/1/2 196/1/2
f 197/1/2 198/1/2 201/1/2
f 201/1/2 198/1/2 202/1/2
f 199/1/2 200/1/2 203/1/2
f 203/1/2 200/1/2 204/1/2
f 205/1/2 206/1/2 209/1/2
f 209/1/2 206/1/2 210/1/2
f 207/1/2 208/1/2 211/1/2
f 211/1/2 208/1/2 212/1/2
f 213/1/2 214/1/2 217/1/2
f 217/1/2 214/1/2 218/1/2
f 215/1/2 216/1/2 219/1/2
f 219/1/2 216/1/2 220/1/2
f 221/1/2 222/1/2 225/1/2
f 225/1/2 222/1/2 226/1/2
f 223/1/2 224/1/2 227/1/2
f 227/1/2 224/1/2 228/1/2
f 229/1/2 230/1/2 233/1/2
f 233/1/2 230/1/2 234/1/2
f 231/1/2 232/1/2 235/1/2
f 235/1/2 232/1/2 236/1/2
f 237/1/2 238/1/2 241/1/2
f 241/1/2 238/1/2 242/1/2
f 239/1/2 240/1/2 243/1/2
f 243/1/2 240/1/2 244/1/2
f 245/1/2 246/1/2 247/1/2
f 247/1/2 246/1/2 248/1/2
f 251/1/3 250/1/3 249/1/3
f 252/1/3 250/1/3 251/1/3
f 255/1/3 254/1/3 253/1/3
f 256/1/3 254/1/3 255/1/3
f 259/1/3 258/1/3 257/1/3
f 260/1/3 258/1/3 259/1/3
f 263/1/3 262/1/3 261/1/3
f 264/1/3 262/1/3 263/1/3
f 267/1/3 266/1/3 265/1/3
f 268/1/3 266/1/3 267/1/3
f 271/1/3 270/1/3 269/1/3
f 272/1/3 270/1/3 271/1/3
f 275/1/3 274/1/3 273/1/3
f 276/1/3 274/1/3 275/1/3
f 279/1/3 278/1/3 277/1/3
f 280/1/3 278/1/3 279/1/3
f 283/1/3 282/1/3 281/1/3
f 284/1/3 282/1/3 283/1/3
f 287/1/3 286/1/3 285/1/3
f 288/1/3 286/1/3 287/1/3
f 291/1/3 290/1/3 289/1/3
f 292/1/3 290/1/3 291/1/3
f 295/1/3 294/1/3 293/1/3
f 296/1/3 294/1/3 295/1/3
f 299/1/3 298/1/3 297/1/3
f 300/1/3 298/1/3 299/1/3
f 303/1/3 302/1/3 301/1/3
f 304/1/3 302/1/3 303/1/3
f 307/1/3 306/1/3 305/1/3
f 308/1/3 306/1/3 307/1/3
f 311/1/3 310/1/3 309/1/3
f 312/1/3 310/1/3 311/1/3
f 315/1/3 314/1/3 313/1/3
f 316/1/3 314/1/3 315/1/3
f 319/1/3 318/1/3 317/1/3
f 320/1/3 318/1/3 319/1/3
f 323/1/3 322/1/3 321/1/3
f 324/1/3 322/1/3 323/1/3
f 327/1/3 326/1/3 325/1/3
f 328/1/3 326/1/3 327/1/3
f 331/1/3 330/1/3 329/1/3
f 332/1/3 330/1/3 331/1/3
f 335/1/3 334/1/3 333/1/3
f 336/1/3 334/1/3 335/1/3
f 339/1/3 338/1/3 337/1/3
f 340/1/3 338/1/3 339/1/3
f 343/1/3 342/1/3 341/1/3
f 344/1/3 342/1/3 343/1/3
f 347/1/3 346/1/3 345/1/3
f 348/1/3 346/1/3 347/1/3
f 351/1/3 350/1/3 349/1/3
f 352/1/3 350/1/3 351/1/3
f 355/1/3 354/1/3 353/1/3
f 356/1/3 354/1/3 355/1/3
f 359/1/3 358/1/3 357/1/3
f 360/1/3 358/1/3 359/1/3
f 363/1/3 362/1/3 361/1/3
f 364/1/3 362/1/3 363/1/3
f 367/1/3 366/1/3 365/1/3
f 368/1/3 366/1/3 367/1/3
f 371/1/3 370/1/3 369/1/3
f 372/1/3 370/1/3 371/1/3
f 373/1/4 374/1/4 375/1/4
f 375/1/4 374/1/4 376/1/4
f 377/1/4 378/1/4 379/1/4
f 379/1/4 378/1/4 380/1/4
f 381/1/4 382/1/4 383/1/4
f 383/1/4 382/1/4 384/1/4
f 385/1/4 386/1/4 387/1/4
f 387/1/4 386/1/4 388/1/4
f 389/1/4 390/1/4 391/1/4
f 391/1/4 390/1/4 392/1/4
f 393/1/4 394/1/4 395/1/4
f 395/1/4 394/1/4 396/1/4
f 397/1/4 398/1/4 399/1/4
f 399/1/4 398/1/4 400/1/4
f 401/1/4 402/1/4 403/1/4
f 403/1/4 402/1/4 404/1/4
f 405/1/4 406/1/4 407/1/4
f 407/1/4 406/1/4 408/1/4
f 409/1/4 410/1/4 411/1/4
f 411/1/4 410/1/4 412/1/4
f 413/1/4 414/1/4 415/1/4
f 415/1/4 414/1/4 416/1/4
f 417/1/4 418/1/4 419/1/4
f 419/1/4 418/1/4 420/1/4
f 421/1/4 422/1/4 423/1/4
f 423/1/4 422/1/4 424/1/4
f 425/1/4 426/1/4 427/1/4
f 427/1/4 426/1/4 428/1/4
f 429/1/4 430/1/4 431/1/4
f 431/1/4 430/1/4 432/1/4
f 433/1/4 434/1/4 435/1/4
f 435/1/4 434/1/4 436/1/4
f 437/1/4 438/1/4 439/1/4
f 439/1/4 438/1/4 440/1/4
f 441/1/4 442/1/4 443/1/4
f 443/1/4 442/1/4 444/1/4
f 445/1/4 446/1/4 447/1/4
f 447/1/4 446/1/4 448/1/4
f 449/1/4 450/1/4 451/1/4
f 451/1/4 450/1/4 452/1/4
f 453/1/4 454/1/4 455/1/4
f 455/1/4 454/1/4 456/1/4
f 457/1/4 458/1/4 459/1/4
f 459/1/4 458/1/4 460/1/4
f 461/1/4 462/1/4 463/1/4
f 463/1/4 462/1/4 464/1/4
f 465/1/4 466/1/4 467/1/4
f 467/1/4 466/1/4 468/1/4
f 469/1/4 470/1/4 471/1/4
f 471/1/4 470/1/4 472/1/4
f 473/1/4 474/1/4 475/1/4
f 475/1/4 474/1/4 476/1/4
f 477/1/4 478/1/4 479/1/4
f 479/1/4 478/1/4 480/1/4
f 481/1/4 482/1/4 483/1/4
f 483/1/4 482/1/4 484/1/4
f 485/1/4 486/1/4 487/1/4
f 487/1/4 486/1/4 488/1/4
f 489/1/4 490/1/4 491/1/4
f 491/1/4 490/1/4 492/1/4
f 493/1/4 494/1/4 495/1/4
f 495/1/4 494/1/4 496/1/4
f 499/1/5 498/1/5 497/1/5
f 501/1/5 500/1/5 499/1/5
f 503/1/5 502/1/5 501/1/5
f 505/1/5 504/1/5 503/1/5
f 507/1/5 506/1/5 505/1/5
f 509/1/5 508/1/5 507/1/5
f 511/1/5 510/1/5 509/1/5
f 513/1/5 512/1/5 511/1/5
f 515/1/5 514/1/5 513/1/5
f 517/1/5 516/1/5 515/1/5
f 519/1/5 518/1/5 517/1/5
f 521/1/5 520/1/5 519/1/5
f 523/1/5 522/1/5 521/1/5
f 525/1/5 524/1/5 523/1/5
f 527/1/5 526/1/5 525/1/5
f 529/1/5 528/1/5 527/1/5
f 531/1/5 530/1/5 529/1/5
f 533/1/5 532/1/5 531/1/5
f 535/1/5 534/1/5 533/1/5
f 537/1/5 536/1/5 535/1/5
f 539/1/5 538/1/5 537/1/5
f 541/1/5 540/1/5 539/1/5
f 543/1/5 542/1/5 541/1/5
f 546/1/5 499/1/5 497/1/5
f 546/1/5 544/1/5 543/1/5
f 546/1/5 543/1/5 541/1/5
f 546/1/5 541/1/5 539/1/5
f 546/1/5 539/1/5 537/1/5
f 546/1/5 537/1/5 535/1/5
f 546/1/5 535/1/5 533/1/5
f 546/1/5 533/1/5 531/1/5
f 546/1/5 531/1/5 529/1/5
f 546/1/5 529/1/5 527/1/5
f 546/1/5 527/1/5 525/1/5
f 546/1/5 525/1/5 523/1/5
f 546/1/5 523/1/5 521/1/5
f 546/1/5 521/1/5 519/1/5
f 546/1/5 519/1/5 517/1/5
f 546/1/5 517/1/5 515/1/5
f 546/1/5 515/1/5 513/1/5
f 546/1/5 513/1/5 511/1/5
f 546/1/5 511/1/5 509/1/5
f 546/1/5 509/1/5 507/1/5
f 546/1/5 507/1/5 505/1/5
f 546/1/5 505/1/5 503/1/5
f 546/1/5 503/1/5 501/1/5
f 546/1/5 501/1/5 499/1/5
f 547/1/5 544/1/5 546/1/5
f 549/1/5 546/1/5 545/1/5
f 549/1/5 548/1/5 547/1/5
f 549/1/5 547/1/5 546/1/5
f 551/1/5 550/1/5 549/1/5
f 553/1/5 552/1/5 551/1/5
f 555/1/5 554/1/5 553/1/5
f 557/1/5 556/1/5 555/1/5
f 559/1/5 557/1/5 555/1/5
f 559/1/5 558/1/5 557/1/5
f 560/1/5 558/1/5 559/1/5
f 561/1/5 555/1/5 553/1/5
f 561/1/5 559/1/5 555/1/5
f 562/1/5 559/1/5 561/1/5
f 563/1/5 553/1/5 551/1/5
f 563/1/5 561/1/5 553/1/5
f 564/1/5 561/1/5 563/1/5
f 565/1/5 551/1/5 549/1/5
f 565/1/5 563/1/5 551/1/5
f 566/1/5 563/1/5 565/1/5
f 567/1/5 549/1/5 545/1/5
f 567/1/5 565/1/5 549/1/5
f 568/1/5 565/1/5 567/1/5
f 569/1/5 567/1/5 545/1/5
f 570/1/5 567/1/5 569/1/5
f 571/1/5 567/1/5 570/1/5
f 572/1/5 567/1/5 571/1/5
f 573/1/5 571/1/5 570/1/5
f 574/1/5 571/1/5 573/1/5
f 575/1/5 573/1/5 570/1/5
f 576/1/5 573/1/5 575/1/5
f 577/1/5 575/1/5 570/1/5
f 578/1/5 575/1/5 577/1/5
f 579/1/5 577/1/5 570/1/5
f 580/1/5 577/1/5 579/1/5
f 581/1/5 579/1/5 570/1/5
f 582/1/5 579/1/5 581/1/5
f 583/1/5 581/1/5 570/1/5
f 584/1/5 581/1/5 583/1/5
f 585/1/5 583/1/5 570/1/5
f 586/1/5 583/1/5 585/1/5
f 587/1/5 585/1/5 570/1/5
f 588/1/5 585/1/5 587/1/5
f 589/1/5 587/1/5 570/1/5
f 590/1/5 587/1/5 589/1/5
f 591/1/5 589/1/5 570/1/5
f 592/1/5 589/1/5 591/1/5
f 593/1/5 591/1/5 570/1/5
f 594/1/5 591/1/5 593/1/5
f 595/1/5 593/1/5 570/1/5
f 596/1/5 593/1/5 595/1/5
f 597/1/5 595/1/5 570/1/5
f 598/1/5 595/1/5 597/1/5
f 599/1/5 597/1/5 570/1/5
f 600/1/5 597/1/5 599/1/5
f 601/1/5 599/1/5 570/1/5
f 602/1/5 599/1/5 601/1/5
f 603/1/5 601/1/5 570/1/5
f 604/1/5 601/1/5 603/1/5
f 605/1/5 603/1/5 570/1/5
f 606/1/5 603/1/5 605/1/5
f 607/1/5 605/1/5 570/1/5
f 608/1/5 605/1/5 607/1/5
f 609/1/5 607/1/5 570/1/5
f 610/1/5 607/1/5 609/1/5
f 611/1/5 609/1/5 570/1/5
f 612/1/5 609/1/5 611/1/5
f 613/1/5 611/1/5 570/1/5
f 614/1/5 611/1/5 613/1/5
f 615/1/5 613/1/5 570/1/5
f 616/1/5 613/1/5 615/1/5
f 617/1/5 615/1/5 570/1/5
f 618/1/5 615/1/5 617/1/5
f 619/1/5 617/1/5 570/1/5
f 620/1/5 617/1/5 619/1/5
f 621/1/6 622/1/6 623/1/6
f 623/1/6 624/1/6 625/1/6
f 625/1/6 626/1/6 627/1/6
f 627/1/6 628/1/6 629/1/6
f 629/1/6 630/1/6 631/1/6
f 631/1/6 632/1/6 633/1/6
f 633/1/6 634/1/6 635/1/6
f 635/1/6 636/1/6 637/1/6
f 637/1/6 638/1/6 639/1/6
f 639/1/6 640/1/6 641/1/6
f 641/1/6 642/1/6 643/1/6
f 643/1/6 644/1/6 645/1/6
f 645/1/6 646/1/6 647/1/6
f 647/1/6 648/1/6 649/1/6
f 649/1/6 650/1/6 651/1/6
f 651/1/6 652/1/6 653/1/6
f 653/1/6 654/1/6 655/1/6
f 655/1/6 656/1/6 657/1/6
f 657/1/6 658/1/6 659/1/6
f 659/1/6 660/1/6 661/1/6
f 661/1/6 662/1/6 663/1/6
f 663/1/6 664/1/6 665/1/6
f 665/1/6 666/1/6 667/1/6
f 621/1/6 623/1/6 670/1/6
f 667/1/6 668/1/6 670/1/6
f 665/1/6 667/1/6 670/1/6
f 663/1/6 665/1/6 670/1/6
f 661/1/6 663/1/6 670/1/6
f 659/1/6 661/1/6 670/1/6
f 657/1/6 659/1/6 670/1/6
f 655/1/6 657/1/6 670/1/6
f 653/1/6 655/1/6 670/1/6
f 651/1/6 653/1/6 670/1/6
f 649/1/6 651/1/6 670/1/6
f 647/1/6 649/1/6 670/1/6
f 645/1/6 647/1/6 670/1/6
f 643/1/6 645/1/6 670/1/6
f 641/1/6 643/1/6 670/1/6
f 639/1/6 641/1/6 670/1/6
f 637/1/6 639/1/6 670/1/6
f 635/1/6 637/1/6 670/1/6
f 633/1/6 635/1/6 670/1/6
f 631/1/6 633/1/6 670/1/6
f 629/1/6 631/1/6 670/1/6
f 627/1/6 629/1/6 670/1/6
f 625/1/6 627/1/6 670/1/6
f 623/1/6 625/1/6 670/1/6
f 670/1/6 668/1/6 671/1/6
f 669/1/6 670/1/6 673/1/6
f 671/1/6 672/1/6 673/1/6
f 670/1/6 671/1/6 673/1/6
f 673/1/6 674/1/6 675/1/6
f 675/1/6 676/1/6 677/1/6
f 677/1/6 678/1/6 679/1/6
f 679/1/6 680/1/6 681/1/6
f 679/1/6 681/1/6 683/1/6
f 681/1/6 682/1/6 683/1/6
f 683/1/6 682/1/6 684/1/6
f 677/1/6 679/1/6 685/1/6
f 679/1/6 683/1/6 685/1/6
f 685/1/6 683/1/6 686/1/6
f 675/1/6 677/1/6 687/1/6
f 677/1/6 685/1/6 687/1/6
f 687/1/6 685/1/6 688/1/6
f 673/1/6 675/1/6 689/1/6
f 675/1/6 687/1/6 689/1/6
f 689/1/6 687/1/6 690/1/6
f 669/1/6 673/1/6 691/1/6
f 673/1/6 689/1/6 691/1/6
f 691/1/6 689/1/6 692/1/6
f 669/1/6 691/1/6 693/1/6
f 693/1/6 691/1/6 694/1/6
f 694/1/6 691/1/6 695/1/6
f 695/1/6 691/1/6 696/1/6
f 694/1/6 695/1/6 697/1/6
f 697/1/6 695/1/6 698/1/6
f 694/1/6 697/1/6 699/1/6
f 699/1/6 697/1/6 700/1/6
f 694/1/6 699/1/6 701/1/6
f 701/1/6 699/1/6 702/1/6
f 694/1/6 701/1/6 703/1/6
f 703/1/6 701/1/6 704/1/6
f 694/1/6 703/1/6 705/1/6
f 705/1/6 703/1/6 706/1/6
f 694/1/6 705/1/6 707/1/6
f 707/1/6 705/1/6 708/1/6
f 694/1/6 707/1/6 709/1/6
f 709/1/6 707/1/6 710/1/6
f 694/1/6 709/1/6 711/1/6
f 711/1/6 709/1/6 712/1/6
f 694/1/6 711/1/6 713/1/6
f 713/1/6 711/1/6 714/1/6
f 694/1/6 713/1/6 715/1/6
f 715/1/6 713/1/6 716/1/6
f 694/1/6 715/1/6 717/1/6
f 717/1/6 715/1/6 718/1/6
f 694/1/6 717/1/6 719/1/6
f 719/1/6 717/1/6 720/1/6
f 694/1/6 719/1/6 721/1/6
f 721/1/6 719/1/6 722/1/6
f 694/1/6 721/1/6 723/1/6
f 723/1/6 721/1/6 724/1/6
f 694/1/6 723/1/6 725/1/6
f 725/1/6 723/1/6 726/1/6
f 694/1/6 725/1/6 727/1/6
f 727/1/6 725/1/6 728/1/6
f 694/1/6 727/1/6 729/1/6
f 729/1/6 727/1/6 730/1/6
f 694/1/6 729/1/6 731/1/6
f 731/1/6 729/1/6 732/1/6
f 694/1/6 731/1/6 733/1/6
f 733/1/6 731/1/6 734/1/6
f 694/1/6 733/1/6 735/1/6
f 735/1/6 733/1/6 736/1/6
f 694/1/6 735/1/6 737/1/6
f 737/1/6 735/1/6 738/1/6
f 694/1/6 737/1/6 739/1/6
f 739/1/6 737/1/6 740/1/6
f 694/1/6 739/1/6 741/1/6
f 741/1/6 739/1/6 742/1/6
f 694/1/6 741/1/6 743/1/6
f 743/1/6 741/1/6 744/1/6
